<?xml version="1.0" encoding="UTF-8"?>
<!DOCTYPE svg PUBLIC "-//W3C//DTD SVG 1.1//EN" "http://www.w3.org/Graphics/SVG/1.1/DTD/svg11.dtd">
<svg xmlns="http://www.w3.org/2000/svg" version="1.1" width="1282px" height="626px" style="shape-rendering:geometricPrecision; text-rendering:geometricPrecision; image-rendering:optimizeQuality; fill-rule:evenodd; clip-rule:evenodd" xmlns:xlink="http://www.w3.org/1999/xlink">
<g><path style="opacity:1" fill="#000000" d="M -0.5,-0.5 C 426.833,-0.5 854.167,-0.5 1281.5,-0.5C 1281.5,208.167 1281.5,416.833 1281.5,625.5C 854.167,625.5 426.833,625.5 -0.5,625.5C -0.5,416.833 -0.5,208.167 -0.5,-0.5 Z"/></g>
<g><path style="opacity:1" fill="#a860d0" d="M 376.5,250.5 C 402.85,247.334 424.684,255.668 442,275.5C 442.85,277.01 443.683,278.51 444.5,280C 437.283,285.545 429.783,290.712 422,295.5C 407.575,278.014 390.075,274.18 369.5,284C 354.068,295.298 349.234,310.132 355,328.5C 367.82,353.216 386.653,359.049 411.5,346C 415.56,343.035 419.06,339.535 422,335.5C 429.49,340.247 436.823,345.247 444,350.5C 437.865,361.292 429.032,369.458 417.5,375C 379.077,388.641 349.91,377.808 330,342.5C 317.797,308.795 325.963,281.295 354.5,260C 361.599,255.942 368.932,252.775 376.5,250.5 Z"/></g>
<g><path style="opacity:1" fill="#a861d0" d="M 541.5,250.5 C 580.684,249.331 605.184,267.664 615,305.5C 617.003,345.676 598.503,370.509 559.5,380C 524.385,382.369 500.552,367.202 488,334.5C 480.569,301.428 491.069,275.928 519.5,258C 526.69,254.679 534.024,252.179 541.5,250.5 Z"/></g>
<g><path style="opacity:1" fill="#a861d1" d="M 668.5,251.5 C 686.17,251.333 703.836,251.5 721.5,252C 747.611,257.295 765.111,272.462 774,297.5C 781.261,337.156 766.094,363.989 728.5,378C 725.167,378.667 721.833,379.333 718.5,380C 701.837,380.5 685.17,380.667 668.5,380.5C 668.5,337.5 668.5,294.5 668.5,251.5 Z"/></g>
<g><path style="opacity:1" fill="#a861d1" d="M 830.5,251.5 C 858.5,251.5 886.5,251.5 914.5,251.5C 914.5,260.5 914.5,269.5 914.5,278.5C 886.5,278.5 858.5,278.5 830.5,278.5C 830.5,269.5 830.5,260.5 830.5,251.5 Z"/></g>
<g><path style="opacity:1" fill="#543068" d="M 1076.5,255.5 C 1100.66,254.502 1124.99,254.169 1149.5,254.5C 1149.83,263.682 1149.49,272.682 1148.5,281.5C 1148.5,272.833 1148.5,264.167 1148.5,255.5C 1124.5,255.5 1100.5,255.5 1076.5,255.5 Z"/></g>
<g><path style="opacity:1" fill="#a861d1" d="M 1013.5,379.5 C 1004.5,379.5 995.5,379.5 986.5,379.5C 986.831,350.662 986.498,321.995 985.5,293.5C 979.878,297.282 974.378,301.282 969,305.5C 964.363,298.031 959.53,290.698 954.5,283.5C 967.025,273.808 979.692,264.308 992.5,255C 999.492,254.5 1006.49,254.334 1013.5,254.5C 1013.5,296.167 1013.5,337.833 1013.5,379.5 Z"/></g>
<g><path style="opacity:1" fill="#a861d1" d="M 1076.5,255.5 C 1100.5,255.5 1124.5,255.5 1148.5,255.5C 1148.5,264.167 1148.5,272.833 1148.5,281.5C 1132.8,280.849 1117.46,281.516 1102.5,283.5C 1102.5,285.833 1102.5,288.167 1102.5,290.5C 1101.54,292.265 1101.21,294.265 1101.5,296.5C 1103.1,296.768 1104.43,296.434 1105.5,295.5C 1129.39,293.683 1145.22,304.017 1153,326.5C 1157.21,350.584 1148.38,367.75 1126.5,378C 1102.48,385.123 1082.31,379.29 1066,360.5C 1064.44,358.557 1063.28,356.39 1062.5,354C 1069.04,348.46 1075.87,343.293 1083,338.5C 1085.76,341.94 1088.59,345.44 1091.5,349C 1099.28,353.79 1107.62,354.79 1116.5,352C 1121.1,350.402 1123.93,347.235 1125,342.5C 1127.58,333.153 1124.41,326.653 1115.5,323C 1105.54,319.726 1096.71,321.559 1089,328.5C 1083.76,327.064 1078.59,325.398 1073.5,323.5C 1073.17,322.667 1072.83,321.833 1072.5,321C 1074.2,299.193 1075.54,277.36 1076.5,255.5 Z"/></g>
<g><path style="opacity:1" fill="#6e3d89" d="M 132.5,277.5 C 140.584,277.074 144.417,280.741 144,288.5C 135.016,298.318 125.849,307.985 116.5,317.5C 117.582,317.749 118.915,317.915 120.5,318C 128,325.5 135.5,333 143,340.5C 145.897,347.797 143.397,352.13 135.5,353.5C 132.852,353.033 130.519,351.866 128.5,350C 117.008,339.008 106.008,327.508 95.5,315.5C 107.672,302.601 120.005,289.934 132.5,277.5 Z"/></g>
<g><path style="opacity:1" fill="#6e3d8a" d="M 218.5,277.5 C 222.719,276.979 226.386,278.146 229.5,281C 240.992,291.992 251.992,303.492 262.5,315.5C 250.626,327.873 238.626,340.04 226.5,352C 221.18,354.702 217.013,353.535 214,348.5C 213.245,345.697 213.578,343.03 215,340.5C 222.5,333 230,325.5 237.5,318C 239.085,317.915 240.418,317.749 241.5,317.5C 232.848,308.348 224.014,299.348 215,290.5C 212.348,285.039 213.514,280.706 218.5,277.5 Z"/></g>
<g><path style="opacity:1" fill="#6d3d89" d="M 188.5,277.5 C 197.207,277.037 200.707,281.037 199,289.5C 190.333,309.5 181.667,329.5 173,349.5C 167.042,355.339 162.042,354.672 158,347.5C 157.416,344.743 157.75,342.077 159,339.5C 167.528,320.249 175.861,300.916 184,281.5C 185.397,279.93 186.897,278.596 188.5,277.5 Z"/></g>
<g><path style="opacity:1" fill="#020102" d="M 544.5,278.5 C 567.905,277.75 582.071,288.75 587,311.5C 587.408,333.431 576.908,346.931 555.5,352C 527.25,352.042 513.417,337.875 514,309.5C 517.658,292.676 527.824,282.343 544.5,278.5 Z"/></g>
<g><path style="opacity:1" fill="#020102" d="M 696.5,279.5 C 709.324,277.78 721.324,279.946 732.5,286C 747.389,297.682 751.555,312.515 745,330.5C 739.499,341.008 730.999,347.841 719.5,351C 711.841,351.5 704.174,351.666 696.5,351.5C 696.5,327.5 696.5,303.5 696.5,279.5 Z"/></g>
<g><path style="opacity:1" fill="#2b1835" d="M 1148.5,281.5 C 1133.26,282.181 1117.93,282.848 1102.5,283.5C 1117.46,281.516 1132.8,280.849 1148.5,281.5 Z"/></g>
<g><path style="opacity:1" fill="#4e2d62" d="M 1102.5,290.5 C 1102.5,292.167 1102.5,293.833 1102.5,295.5C 1103.5,295.5 1104.5,295.5 1105.5,295.5C 1104.43,296.434 1103.1,296.768 1101.5,296.5C 1101.21,294.265 1101.54,292.265 1102.5,290.5 Z"/></g>
<g><path style="opacity:1" fill="#a861d1" d="M 830.5,302.5 C 858.5,302.5 886.5,302.5 914.5,302.5C 914.5,311.5 914.5,320.5 914.5,329.5C 886.5,329.5 858.5,329.5 830.5,329.5C 830.5,320.5 830.5,311.5 830.5,302.5 Z"/></g>
<g><path style="opacity:1" fill="#6d3f88" d="M 985.5,293.5 C 986.498,321.995 986.831,350.662 986.5,379.5C 995.5,379.5 1004.5,379.5 1013.5,379.5C 1004.35,380.494 995.015,380.827 985.5,380.5C 985.5,351.5 985.5,322.5 985.5,293.5 Z"/></g>
<g><path style="opacity:1" fill="#a660cf" d="M 830.5,353.5 C 858.5,353.5 886.5,353.5 914.5,353.5C 914.5,362.5 914.5,371.5 914.5,380.5C 886.5,380.5 858.5,380.5 830.5,380.5C 830.5,371.5 830.5,362.5 830.5,353.5 Z"/></g>
</svg>
