<?xml version="1.0" standalone="no"?>
<!DOCTYPE svg PUBLIC "-//W3C//DTD SVG 20010904//EN"
 "http://www.w3.org/TR/2001/REC-SVG-20010904/DTD/svg10.dtd">
<svg version="1.0" xmlns="http://www.w3.org/2000/svg"
 width="3104.000000pt" height="1936.000000pt" viewBox="0 0 3104.000000 1936.000000"
 preserveAspectRatio="xMidYMid meet">

<g transform="translate(0.000000,1936.000000) scale(0.100000,-0.100000)"
fill="#000000" stroke="none">
<path d="M7775 15698 c-88 -4 -167 -11 -175 -15 -8 -3 -35 -8 -60 -9 -98 -6
-187 -16 -197 -22 -7 -5 -6 -11 3 -20 8 -7 14 -8 14 -2 0 5 7 10 15 10 8 0 15
-4 15 -10 0 -5 -4 -10 -8 -10 -5 0 -32 -22 -60 -49 -29 -27 -73 -57 -99 -67
-27 -10 -50 -20 -53 -24 -3 -3 -21 -17 -40 -31 -19 -15 -46 -36 -59 -48 -13
-11 -28 -21 -32 -21 -4 0 -33 -23 -64 -51 -30 -29 -75 -66 -100 -84 -25 -17
-98 -84 -163 -149 -64 -64 -283 -283 -487 -486 -203 -203 -487 -488 -630 -635
-143 -147 -429 -437 -635 -645 -206 -209 -441 -446 -521 -527 -80 -81 -160
-161 -177 -178 -17 -16 -231 -230 -476 -475 -244 -245 -461 -462 -482 -483
-22 -20 -77 -78 -124 -127 -47 -50 -103 -107 -125 -128 -52 -49 -250 -249
-295 -298 -19 -22 -54 -56 -78 -77 -23 -20 -40 -37 -37 -37 6 0 -694 -698
-880 -878 -55 -54 -122 -121 -149 -150 -27 -28 -52 -52 -55 -52 -4 0 -32 -29
-62 -64 -30 -36 -61 -67 -70 -71 -8 -3 -34 -24 -56 -48 -76 -78 -281 -282
-309 -307 -16 -14 -35 -37 -42 -50 -7 -14 -31 -41 -54 -60 -50 -42 -92 -83
-137 -135 l-34 -39 6 30 c8 43 15 73 21 82 7 12 -36 8 -59 -5 -11 -7 -16 -13
-11 -13 5 0 4 -6 -2 -12 -5 -7 -13 -32 -17 -56 l-7 -43 36 6 c24 5 36 3 36 -4
0 -7 -20 -11 -50 -11 -41 0 -48 -3 -43 -16 5 -13 7 -13 14 -2 7 10 9 9 9 -5 0
-10 5 -15 10 -12 6 3 10 -1 10 -10 0 -9 -4 -14 -10 -10 -6 3 -7 -21 -4 -64 4
-41 2 -77 -5 -88 -6 -10 -11 -12 -11 -5 0 17 -20 15 -20 -3 0 -8 -7 -15 -15
-15 -11 0 -15 -9 -13 -30 1 -17 5 -30 9 -30 4 0 12 -14 19 -30 7 -16 16 -30
21 -30 5 0 9 -7 9 -15 0 -8 5 -15 10 -15 6 0 10 -6 10 -13 0 -11 28 -35 40
-33 8 0 50 -35 84 -72 17 -18 52 -54 78 -80 26 -26 61 -60 77 -77 121 -121
181 -185 181 -193 0 -13 90 -102 102 -102 13 0 78 -71 78 -84 0 -6 17 -22 37
-36 47 -31 123 -107 123 -123 1 -7 19 -25 40 -42 62 -46 115 -97 133 -127 10
-15 34 -36 55 -47 20 -11 53 -39 72 -62 34 -42 61 -69 137 -140 21 -20 49 -50
62 -67 13 -18 27 -29 32 -27 10 7 144 -121 144 -138 0 -7 6 -12 13 -12 8 0 20
-8 27 -18 7 -10 15 -14 16 -8 2 6 20 -11 39 -38 29 -39 38 -45 48 -35 16 18
16 25 0 35 -9 6 -4 9 15 9 33 0 70 -22 92 -56 14 -22 14 -26 1 -39 -17 -17
-36 -20 -36 -5 0 6 -8 10 -19 10 -10 0 -21 9 -24 20 -3 11 -10 20 -16 20 -9 0
-9 -5 -1 -20 6 -11 7 -20 3 -20 -4 0 3 -6 17 -13 14 -8 24 -19 22 -25 -1 -7 3
-12 10 -12 11 0 111 -97 116 -112 1 -5 5 -8 8 -7 3 0 14 -9 24 -21 10 -12 22
-20 27 -19 4 1 14 -9 20 -22 7 -13 13 -20 13 -14 0 5 8 -2 17 -15 9 -14 23
-29 30 -33 7 -4 13 -13 13 -19 0 -10 46 -58 56 -58 8 0 27 -21 73 -82 24 -32
47 -58 52 -58 12 0 45 -28 78 -64 14 -16 34 -36 43 -44 9 -9 15 -19 13 -23 -3
-4 9 -12 25 -19 16 -7 27 -16 24 -21 -3 -5 0 -9 6 -9 12 0 70 -57 70 -69 0 -8
56 -71 64 -71 3 0 15 -8 25 -17 11 -10 33 -29 50 -43 17 -14 31 -31 31 -38 0
-7 4 -10 10 -7 5 3 10 -1 10 -10 0 -19 23 -45 40 -45 6 0 9 -4 5 -9 -3 -5 3
-12 12 -15 10 -4 32 -23 48 -43 28 -34 51 -57 162 -164 27 -25 53 -54 59 -65
6 -10 21 -20 33 -22 12 -2 19 -8 16 -13 -4 -5 0 -9 7 -9 7 0 24 -14 38 -31 44
-55 117 -129 125 -129 13 0 114 -107 108 -114 -3 -3 5 -10 18 -15 13 -5 40
-28 59 -51 47 -55 140 -149 178 -180 17 -14 32 -31 32 -37 0 -7 5 -13 10 -13
6 0 10 -5 10 -11 0 -14 26 -40 34 -32 3 3 8 -2 12 -11 3 -9 11 -16 18 -16 12
0 76 -69 76 -83 0 -4 4 -6 9 -2 5 3 12 -3 16 -14 3 -11 22 -32 42 -48 39 -30
73 -64 138 -134 22 -24 51 -53 65 -64 14 -11 38 -39 53 -62 16 -23 40 -50 54
-60 39 -27 138 -123 128 -123 -5 0 7 -12 25 -27 44 -35 130 -124 130 -133 0
-4 26 -27 58 -51 68 -52 73 -56 91 -92 8 -15 28 -38 44 -50 16 -12 45 -40 65
-61 21 -22 56 -58 79 -80 85 -82 229 -226 320 -318 23 -24 57 -56 77 -72 20
-16 38 -37 42 -48 3 -10 10 -16 15 -13 5 4 9 0 9 -9 0 -8 15 -26 33 -40 64
-51 86 -71 86 -81 1 -15 62 -87 69 -81 3 3 11 -3 19 -14 8 -11 21 -20 29 -20
8 0 14 -4 14 -10 0 -5 5 -10 11 -10 14 0 39 -26 39 -40 0 -6 5 -8 10 -5 6 3
11 1 11 -4 1 -6 2 -16 3 -22 0 -7 10 -17 21 -23 11 -6 24 -17 28 -24 5 -7 12
-10 18 -7 5 4 9 1 9 -4 0 -6 10 -11 23 -12 12 0 16 -3 9 -6 -10 -4 -8 -9 7
-20 12 -8 21 -21 21 -29 0 -8 3 -13 8 -11 7 5 33 -17 32 -28 -1 -21 2 -25 15
-25 8 0 15 -3 15 -7 0 -10 49 -33 68 -33 7 0 11 -4 8 -9 -8 -12 14 -26 48 -30
38 -4 64 -29 68 -68 2 -18 14 -42 26 -53 12 -11 25 -33 28 -48 8 -30 72 -97
104 -107 11 -4 18 -11 15 -16 -4 -5 -1 -9 5 -9 5 0 24 -13 42 -30 38 -37 48
-38 48 -4 0 22 3 24 22 18 34 -10 63 -54 37 -54 -8 0 -8 -4 0 -14 6 -8 10 -20
9 -27 -2 -8 3 -13 10 -12 6 2 12 -6 12 -16 0 -19 15 -35 33 -36 4 0 7 -4 8
-10 0 -5 11 -16 25 -23 13 -7 24 -16 24 -21 0 -4 20 -22 45 -40 40 -29 50 -31
109 -29 35 1 70 -3 78 -9 7 -6 38 -16 68 -24 30 -7 58 -17 61 -21 3 -5 59 -13
125 -20 65 -6 122 -15 125 -21 8 -12 323 -16 384 -5 22 4 69 12 103 17 61 9
97 19 239 62 34 10 72 19 83 19 26 0 100 37 100 50 0 6 5 10 10 10 6 0 56 45
111 100 56 55 104 100 108 100 4 0 40 31 79 68 40 38 74 67 76 65 2 -2 11 11
19 29 9 18 17 29 17 23 0 -17 30 46 30 64 0 33 37 117 63 143 27 27 72 41 72
23 1 -18 15 -33 30 -31 9 1 31 19 50 39 19 20 35 34 35 31 0 -4 13 11 28 32
32 44 52 93 58 144 3 19 9 57 14 83 6 26 10 63 10 82 0 19 4 37 10 40 12 7 14
315 2 315 -5 0 -9 24 -11 52 -2 67 -21 167 -32 174 -5 3 -9 13 -9 23 0 28 -24
71 -42 77 -10 3 -28 0 -40 -7 -13 -7 -24 -12 -26 -11 -14 4 -52 62 -63 96 -7
22 -28 57 -46 76 -18 19 -33 38 -33 42 0 4 -6 13 -14 21 -8 7 -28 41 -45 75
-17 33 -35 63 -41 67 -6 3 -8 11 -5 16 4 5 1 9 -4 9 -6 0 -10 3 -9 8 4 15 -14
71 -22 69 -4 -1 -27 17 -51 40 -55 53 -72 73 -62 73 4 1 -5 8 -20 16 -53 28
-106 80 -129 123 -7 14 -19 32 -25 39 -7 7 -13 17 -13 21 0 5 -18 21 -39 35
-22 15 -51 44 -65 65 -14 20 -44 48 -66 61 -44 27 -100 76 -100 88 0 7 -41 59
-61 77 -11 10 -89 89 -131 133 -13 13 -40 32 -60 43 -33 17 -88 75 -88 93 0 4
-16 21 -37 39 -20 18 -61 57 -92 87 -31 30 -70 64 -86 75 -47 32 -105 94 -131
141 -6 10 -24 28 -41 39 -17 11 -46 41 -64 67 -19 25 -45 52 -59 60 -50 27
-79 54 -133 127 -23 31 -48 60 -56 65 -8 5 -34 30 -58 55 -82 85 -98 101 -105
101 -16 0 -70 55 -87 89 -20 38 -84 111 -98 111 -4 0 -19 15 -33 32 -35 46
-70 78 -105 95 -36 19 -61 46 -85 93 -18 36 -45 66 -96 110 -16 14 -40 40 -54
57 -14 18 -31 33 -37 33 -7 0 -13 5 -13 10 0 6 -5 10 -12 10 -22 0 -77 51
-119 110 -23 33 -45 60 -48 60 -11 0 -65 54 -104 102 -21 27 -45 48 -52 48
-24 0 -82 58 -113 113 -16 29 -47 65 -68 80 -22 15 -52 45 -69 66 -16 21 -55
54 -86 73 -42 27 -62 47 -80 84 -13 27 -23 52 -22 55 1 3 -10 12 -25 20 -15 7
-61 47 -102 89 -42 41 -92 86 -112 100 -19 13 -42 41 -51 61 -19 43 -192 223
-254 263 -40 27 -85 102 -89 150 -1 10 -8 22 -15 27 -8 5 -10 9 -5 9 5 0 2 8
-7 18 -10 10 -15 21 -12 23 2 3 -24 19 -58 37 -54 27 -73 31 -141 31 -44 1
-82 5 -85 10 -3 4 -20 12 -38 15 -35 8 -88 52 -121 102 -17 24 -22 50 -24 117
-3 84 -3 85 -28 84 -31 -2 -39 32 -16 65 9 12 16 18 16 13 0 -5 7 1 16 13 8
12 22 22 29 22 8 0 17 11 21 25 5 20 13 25 36 25 22 0 29 4 25 14 -6 16 11 36
33 36 8 1 28 22 45 48 38 61 201 228 237 243 15 6 25 15 22 20 -3 5 1 9 8 9 7
0 38 31 68 70 30 38 61 69 67 70 7 0 12 5 10 11 -1 6 4 14 11 16 12 5 17 -19
14 -60 -2 -15 3 -17 20 -11 13 3 23 7 23 8 0 1 16 18 35 39 26 28 32 40 22 46
-28 17 -67 -1 -64 -30 1 -3 -5 -6 -13 -6 -10 0 -11 5 -2 21 7 11 18 26 25 34
7 7 10 18 7 23 -4 5 -2 9 3 9 4 0 19 10 32 22 27 26 42 30 61 17 11 -7 11 -9
1 -9 -10 0 -10 -5 -2 -20 10 -19 13 -19 38 -5 15 8 38 29 52 45 34 42 77 86
136 142 27 26 63 62 80 80 17 18 44 45 60 59 16 15 58 58 94 97 36 40 70 72
75 72 6 1 21 15 35 32 58 72 103 118 114 118 11 0 22 12 85 93 16 21 42 48 58
60 31 25 68 64 111 119 16 21 32 35 34 32 3 -3 30 21 59 52 30 31 71 73 92 93
73 68 206 196 231 221 98 98 223 230 220 233 -2 2 13 17 34 32 20 16 53 47 72
68 19 22 55 58 79 81 24 22 60 58 80 80 57 61 104 109 142 141 18 17 50 51 69
77 19 25 38 44 41 43 9 -6 83 68 99 99 8 16 43 52 78 79 34 27 62 52 62 55 0
12 73 87 120 124 25 19 52 48 60 64 17 33 67 82 92 90 9 3 39 33 66 67 27 34
62 69 77 77 30 16 95 78 95 92 0 10 60 68 71 68 10 0 89 81 89 91 0 11 49 59
60 59 4 0 32 25 62 57 74 79 99 104 140 138 19 17 41 41 48 54 18 35 70 90 91
96 10 3 32 27 48 53 50 76 63 92 75 92 18 0 76 51 76 66 0 8 4 14 9 14 5 0 12
15 15 34 6 29 14 43 55 92 5 7 7 15 3 18 -3 4 0 11 8 16 28 18 -1 23 -35 7
-57 -27 -64 -24 -59 29 8 84 72 182 142 218 l32 17 0 -31 c0 -16 4 -30 10 -30
5 0 7 6 4 14 -4 10 0 14 12 12 58 -9 128 139 164 344 22 130 27 368 9 447 -20
85 -71 243 -79 243 -4 0 -13 15 -20 33 -7 17 -14 26 -17 20 -2 -7 -14 -13 -26
-14 -20 -1 -20 -2 3 -9 24 -8 24 -8 3 -9 -13 -1 -26 -1 -30 -1 -8 0 -10 5 -12
40 0 11 -8 20 -16 20 -8 0 -15 4 -15 8 0 5 -17 27 -38 49 -64 67 -122 168
-129 224 -3 27 -12 54 -19 60 -8 6 -14 18 -14 25 0 8 -6 14 -12 14 -10 0 -10
2 0 9 15 9 13 39 -3 57 -8 9 -14 9 -24 0 -12 -8 -13 -8 -7 2 4 7 1 12 -8 12
-9 0 -16 -7 -16 -15 0 -14 -3 -13 -24 2 -20 15 -21 19 -8 24 10 4 2 8 -21 12
-63 10 -139 54 -202 117 -33 33 -66 60 -72 60 -7 0 -13 4 -13 9 0 12 -89 71
-107 71 -8 0 -26 11 -41 25 l-27 25 49 0 c63 0 57 7 -9 11 -30 2 -56 9 -65 19
-27 29 -94 44 -162 36 -61 -7 -147 -8 -238 -2 -25 2 -117 -1 -205 -6z m1470
-1798 c9 -14 -5 -71 -15 -65 -5 3 -11 -1 -13 -7 -3 -7 -6 1 -6 19 -2 52 17 80
34 53z m-325 -571 c0 -30 -18 -60 -59 -99 -20 -19 -48 -51 -61 -70 -19 -27
-58 -70 -64 -70 -1 0 -16 -4 -34 -9 -26 -8 -32 -7 -32 5 0 8 5 12 10 9 6 -3
10 0 10 8 0 7 9 32 20 55 11 22 20 47 20 55 0 12 19 36 55 65 8 7 15 10 15 7
0 -9 75 32 89 49 18 22 31 20 31 -5z m-320 -354 c0 -9 -48 -55 -57 -55 -12 0
-46 -39 -71 -82 -19 -31 -47 -59 -109 -108 -7 -6 -21 -10 -33 -10 l-20 0 20
20 c11 11 20 25 20 32 0 6 3 9 6 5 6 -5 74 85 74 98 0 17 63 64 90 67 3 0 16
9 29 19 22 18 51 25 51 14z m-280 -275 c0 -20 -26 -56 -75 -102 -27 -26 -53
-48 -57 -48 -4 0 -19 -17 -32 -38 -27 -43 -42 -60 -76 -82 -39 -26 -70 -56
-98 -98 -15 -22 -48 -56 -73 -75 -25 -20 -63 -58 -84 -86 -22 -28 -44 -51 -51
-51 -7 0 -14 -7 -18 -15 -3 -8 -11 -15 -19 -15 -16 0 -58 -44 -83 -88 -10 -17
-26 -35 -36 -38 -10 -3 -18 -9 -18 -13 0 -5 -13 -14 -30 -21 -16 -7 -30 -16
-30 -21 0 -15 -95 -119 -109 -119 -24 0 -16 32 17 68 6 7 12 18 12 23 0 11 46
57 129 129 35 30 74 66 87 80 62 67 93 105 106 129 16 32 45 61 81 81 28 16
122 95 141 118 6 7 22 26 36 41 27 30 40 48 70 99 11 18 34 41 52 52 53 32 69
44 100 73 29 27 58 36 58 17z m-1063 -1085 c-40 -38 -85 -85 -100 -102 -35
-41 -71 -46 -54 -9 7 13 15 22 19 20 5 -3 8 2 8 10 0 9 3 16 8 16 4 0 16 16
26 35 10 19 27 37 36 40 10 3 31 19 48 35 17 15 32 26 35 24 2 -2 10 3 17 11
11 13 15 13 21 3 6 -9 -15 -35 -64 -83z m-220 -211 c-3 -3 -12 -4 -19 -1 -8 3
-5 6 6 6 11 1 17 -2 13 -5z m-78 -86 c-62 -54 -76 -67 -118 -117 -37 -44 -64
-50 -54 -11 3 11 9 17 14 14 5 -3 9 1 9 8 0 26 95 132 110 123 5 -3 15 4 23
15 7 11 16 18 19 15 3 -3 11 2 19 11 13 16 14 16 18 -1 2 -13 -12 -32 -40 -57z
m-294 -294 c-9 -14 -27 -30 -41 -36 -13 -6 -24 -15 -24 -20 0 -4 -7 -8 -16 -8
-8 0 -12 -4 -9 -10 3 -5 3 -10 -2 -10 -4 0 -21 -20 -36 -44 -27 -43 -73 -83
-84 -72 -8 8 20 65 29 60 4 -3 8 1 8 9 0 7 8 22 18 33 10 10 21 27 25 37 3 9
12 17 19 17 7 0 24 10 38 23 72 65 112 77 75 21z m-225 -209 c0 -8 -4 -15 -10
-15 -5 0 -7 7 -4 15 4 8 8 15 10 15 2 0 4 -7 4 -15z m-58 -70 c-5 -29 -42 -68
-95 -102 -21 -13 -46 -37 -55 -54 -10 -16 -20 -29 -24 -29 -5 0 -8 -6 -8 -14
0 -14 -21 -26 -45 -26 -21 0 -6 35 34 78 20 22 37 43 38 47 3 11 53 58 53 50
0 -5 8 1 18 11 22 25 72 64 82 64 4 0 5 -11 2 -25z m-335 -350 c-7 -14 -20
-28 -29 -31 -10 -3 -18 -10 -18 -15 0 -5 -6 -9 -13 -9 -7 0 -19 -6 -25 -12 -7
-7 -18 -13 -24 -13 -6 0 -16 -13 -21 -30 -5 -16 -16 -37 -23 -46 -8 -8 -14
-21 -14 -28 0 -8 -8 -11 -20 -8 -11 3 -20 1 -20 -5 0 -5 -4 -7 -10 -3 -5 3 -7
12 -4 20 4 8 10 12 15 9 5 -3 9 0 9 5 0 17 65 96 81 99 8 2 31 23 52 48 44 50
83 62 64 19z m-311 -307 c4 -7 3 -8 -4 -4 -8 5 -12 -2 -12 -18 0 -21 -5 -26
-26 -26 -26 0 -26 8 4 43 18 20 28 22 38 5z m-161 -158 c3 -5 1 -10 -4 -10 -6
0 -11 -8 -11 -18 0 -10 -7 -19 -15 -19 -18 0 -18 -1 -5 31 10 27 24 33 35 16z
m-4808 -852 c-3 -8 -6 -5 -6 6 -1 11 2 17 5 13 3 -3 4 -12 1 -19z m85 -332
c-5 -18 -7 -18 -10 -3 -2 9 -8 17 -13 17 -5 0 -9 5 -9 11 0 5 5 7 10 4 6 -3
10 0 10 7 0 10 2 10 9 -1 5 -7 6 -23 3 -35z m322 -312 c3 -8 1 -14 -4 -14 -6
0 -10 5 -10 10 0 6 -7 10 -15 10 -8 0 -15 4 -15 9 0 14 38 1 44 -15z m639
-644 c3 -11 4 -20 3 -20 -1 0 -9 9 -19 20 -13 15 -14 20 -3 20 7 0 16 -9 19
-20z m325 -308 c29 -38 -3 -59 -40 -25 -27 24 -24 53 5 46 12 -3 28 -13 35
-21z m132 -157 c0 -2 -7 -5 -15 -9 -9 -3 -15 0 -15 9 0 9 6 12 15 9 8 -4 15
-7 15 -9z m29 -29 c9 -10 8 -15 -4 -20 -10 -4 -15 1 -15 14 0 24 4 25 19 6z
m291 -292 c0 -2 -7 -4 -15 -4 -8 0 -15 4 -15 10 0 5 7 7 15 4 8 -4 15 -8 15
-10z m24 -29 c3 -8 1 -15 -4 -15 -6 0 -10 7 -10 15 0 8 2 15 4 15 2 0 6 -7 10
-15z m146 -115 c17 -17 30 -37 30 -45 0 -22 -19 -28 -36 -11 -9 9 -20 14 -25
11 -5 -4 -9 1 -9 9 0 10 -9 16 -22 17 -13 0 -17 3 -9 6 11 5 11 7 0 14 -10 6
-8 9 9 9 12 0 22 5 22 10 0 16 9 12 40 -20z m344 -345 c10 -27 7 -55 -6 -52
-35 7 -89 81 -65 90 17 6 63 -19 71 -38z m246 -277 c0 -9 4 -8 10 2 6 9 10 10
10 3 0 -6 9 -15 20 -18 22 -7 64 -80 56 -98 -2 -7 -5 -5 -5 5 -1 11 -7 15 -21
11 -11 -3 -20 -1 -20 5 0 6 -9 14 -20 17 -11 3 -20 12 -20 20 0 7 -4 15 -9 17
-5 2 -11 10 -13 18 -2 8 -7 18 -13 22 -6 4 -2 8 8 8 9 0 17 -6 17 -12z m395
-368 c3 -11 11 -20 16 -20 5 0 9 -12 9 -26 l0 -25 -42 23 c-22 13 -43 31 -46
41 -2 9 -8 17 -13 17 -14 0 -11 28 4 33 19 7 65 -20 72 -43z m239 -272 c-5 -8
-2 -9 9 -5 25 9 68 -10 74 -33 3 -11 9 -20 14 -20 5 0 9 -8 9 -18 0 -12 -8
-18 -25 -20 -14 -1 -25 3 -25 8 0 6 -8 10 -17 10 -11 0 -26 18 -39 45 -18 36
-19 45 -7 45 8 0 11 -5 7 -12z m346 -319 c0 -4 10 -9 23 -11 12 -2 26 -13 32
-25 5 -13 13 -23 17 -23 5 0 8 -14 8 -30 0 -29 -2 -30 -22 -19 -13 7 -29 18
-36 26 -8 7 -18 11 -23 8 -5 -4 -9 3 -9 14 0 12 -4 21 -10 21 -5 0 -10 9 -10
19 0 11 -6 22 -12 24 -7 3 -1 5 15 4 15 -1 27 -5 27 -8z m180 -205 c0 -17 -10
-17 -33 0 -13 10 -15 15 -5 19 19 6 38 -3 38 -19z m35 -26 c6 -4 2 -8 -7 -8
-10 0 -18 7 -18 17 0 9 3 12 8 7 4 -5 12 -12 17 -16z m118 -95 c5 -7 12 -11
18 -8 5 4 12 -2 15 -12 3 -10 9 -25 14 -34 5 -11 2 -19 -11 -27 -10 -7 -19 -8
-19 -3 0 5 -8 12 -17 15 -27 9 -68 77 -52 86 15 10 41 1 52 -17z m364 -374 c4
-21 -15 -46 -24 -33 -5 6 -15 13 -23 16 -9 3 -22 18 -30 32 -12 24 -12 28 0
36 16 10 73 -28 77 -51z m301 -316 c2 -12 -3 -20 -12 -20 -8 0 -13 4 -11 8 3
4 -2 9 -10 13 -8 3 -15 15 -15 27 0 20 2 20 23 7 12 -9 23 -24 25 -35z m297
-293 c3 -5 2 -10 -4 -10 -5 0 -13 5 -16 10 -3 6 -2 10 4 10 5 0 13 -4 16 -10z
m22 -32 c-3 -8 -6 -5 -6 6 -1 11 2 17 5 13 3 -3 4 -12 1 -19z m298 -311 c1 -7
6 -11 13 -9 7 1 12 -2 12 -8 0 -13 -11 -12 -32 4 -10 7 -18 21 -18 32 0 14 3
16 13 6 6 -7 12 -18 12 -25z m317 -304 c-10 -4 -10 -8 -1 -19 6 -8 15 -11 20
-8 5 3 9 -5 9 -17 l0 -22 -19 22 c-14 16 -21 18 -24 9 -3 -7 -6 -1 -6 15 -1
20 4 27 17 26 11 0 12 -2 4 -6z"/>
<path d="M17580 15697 c-63 -7 -121 -16 -129 -21 -10 -6 -12 -6 -7 2 5 9 -8
12 -43 12 -28 0 -51 -4 -51 -8 0 -5 -23 -15 -52 -22 -44 -13 -48 -15 -27 -21
16 -5 18 -7 7 -8 -10 -1 -18 -5 -18 -10 0 -14 -81 -91 -97 -91 -7 0 -13 -4
-13 -10 0 -5 -17 -14 -38 -20 -22 -5 -54 -25 -73 -43 -19 -18 -61 -54 -95 -79
-89 -68 -227 -207 -246 -248 -9 -20 -37 -58 -62 -85 -44 -48 -87 -139 -114
-240 -6 -22 -14 -50 -17 -62 -4 -13 -12 -29 -18 -35 -7 -7 -26 -35 -42 -63
-15 -27 -45 -72 -65 -100 -20 -27 -49 -76 -65 -109 -23 -48 -30 -55 -36 -40
-6 15 -8 13 -8 -11 -1 -16 -8 -55 -17 -85 -9 -30 -22 -86 -30 -125 -8 -38 -18
-79 -23 -90 -6 -11 -20 -45 -32 -75 -13 -30 -33 -71 -45 -90 -12 -19 -27 -53
-33 -76 -6 -23 -22 -56 -35 -75 -62 -86 -115 -187 -122 -229 -8 -54 -80 -249
-100 -271 -7 -8 -17 -31 -20 -50 -10 -50 -134 -277 -134 -244 0 5 -7 0 -15
-11 -8 -10 -15 -29 -15 -41 0 -13 -4 -23 -8 -23 -4 0 -9 -12 -10 -27 -1 -15
-11 -52 -21 -82 -11 -31 -25 -80 -32 -108 -7 -29 -16 -53 -20 -53 -3 0 -9 -19
-12 -42 -6 -45 -109 -260 -139 -290 -10 -10 -16 -18 -13 -18 8 0 -26 -64 -39
-72 -6 -4 -8 -8 -3 -8 4 0 -4 -18 -18 -40 -14 -22 -25 -43 -25 -48 0 -5 -9
-38 -21 -73 -12 -35 -23 -75 -25 -89 -12 -75 -17 -96 -24 -105 -4 -5 -13 -27
-19 -47 -7 -21 -16 -38 -21 -38 -4 0 -11 -11 -14 -24 -3 -14 -12 -31 -20 -39
-8 -7 -26 -45 -42 -83 -24 -62 -56 -115 -91 -152 -6 -6 -15 -21 -18 -32 -4
-11 -10 -18 -14 -15 -8 4 -11 -7 -31 -115 -13 -68 -21 -103 -27 -120 -3 -8 -7
-20 -8 -25 -2 -6 -12 -32 -24 -57 -11 -26 -21 -54 -21 -63 0 -9 -4 -14 -9 -10
-8 5 -31 -52 -31 -78 0 -30 -97 -203 -137 -245 -7 -7 -16 -25 -19 -40 -3 -15
-10 -38 -15 -52 -4 -14 -20 -65 -34 -115 -14 -49 -32 -99 -39 -110 -7 -11 -15
-40 -18 -65 -3 -26 -20 -70 -39 -103 -19 -32 -41 -70 -49 -85 -8 -15 -17 -29
-20 -32 -9 -9 -40 -63 -61 -105 -10 -22 -30 -59 -43 -81 -27 -49 -71 -181 -80
-241 -6 -43 -64 -164 -104 -218 -12 -17 -33 -57 -46 -89 -13 -33 -36 -72 -50
-89 -14 -16 -26 -31 -26 -34 0 -3 -8 -13 -19 -22 -12 -11 -27 -57 -45 -146
-15 -71 -39 -154 -52 -183 -13 -29 -24 -57 -24 -62 0 -6 -4 -10 -9 -10 -5 0
-14 -15 -22 -32 -7 -18 -15 -35 -18 -38 -4 -3 -12 -23 -20 -45 -7 -22 -40 -79
-72 -128 -33 -48 -59 -92 -59 -98 0 -6 -4 -7 -10 -4 -5 3 -10 0 -11 -7 -4 -67
-12 -114 -30 -173 -50 -162 -161 -416 -199 -450 -11 -10 -20 -23 -20 -30 0 -6
-5 -16 -11 -22 -12 -12 -20 -32 -105 -283 -31 -91 -60 -166 -65 -168 -5 -2 -9
-8 -9 -14 0 -5 -15 -36 -34 -68 -19 -32 -32 -61 -29 -64 4 -3 2 -6 -4 -6 -6 0
-23 -30 -38 -67 -15 -37 -38 -78 -51 -92 -13 -13 -24 -30 -24 -38 0 -8 -4 -11
-10 -8 -6 3 -10 -4 -10 -18 0 -23 -13 -71 -30 -112 -5 -11 -12 -42 -15 -70 -4
-27 -13 -60 -21 -72 -8 -12 -14 -28 -14 -35 0 -8 -17 -47 -39 -89 -21 -41 -41
-91 -45 -110 -7 -38 -36 -95 -104 -209 -25 -41 -49 -95 -54 -120 -9 -51 -60
-212 -69 -220 -3 -3 -12 -23 -18 -45 -22 -72 -115 -249 -147 -283 -7 -6 -16
-21 -19 -32 -3 -11 -10 -20 -15 -20 -4 0 -11 -17 -15 -37 -4 -21 -13 -45 -20
-53 -12 -14 -77 -212 -91 -275 -6 -29 -63 -155 -75 -165 -3 -3 -12 -20 -20
-37 -8 -18 -17 -33 -21 -33 -3 0 -12 -17 -19 -37 -7 -21 -29 -65 -51 -99 -21
-34 -38 -66 -38 -72 0 -6 -3 -12 -8 -14 -9 -4 -42 -123 -54 -198 -5 -30 -16
-68 -24 -84 -7 -16 -14 -34 -14 -41 0 -6 -18 -38 -40 -72 -21 -33 -42 -72 -46
-87 -3 -14 -10 -29 -15 -32 -5 -3 -7 -10 -4 -15 4 -5 1 -9 -4 -9 -6 0 -11 -6
-11 -14 0 -7 -7 -19 -15 -26 -12 -10 -15 -9 -16 6 0 12 -3 14 -6 6 -4 -9 -10
-7 -22 7 -17 20 -18 20 -43 -4 -15 -13 -29 -39 -33 -57 -4 -18 -11 -37 -15
-43 -14 -19 -30 -104 -30 -160 0 -35 -4 -54 -10 -50 -7 4 -10 -58 -10 -179 0
-102 4 -186 9 -186 8 0 15 -27 28 -105 3 -16 9 -38 14 -47 5 -9 9 -35 9 -58 0
-22 6 -53 14 -68 16 -30 56 -67 56 -52 0 6 7 10 15 10 8 0 15 -4 15 -9 0 -5 8
-12 18 -15 9 -3 23 -20 31 -37 8 -18 22 -40 32 -50 30 -30 39 -56 39 -116 0
-33 4 -53 8 -45 6 9 12 5 20 -13 7 -14 17 -23 22 -20 6 3 10 -4 10 -18 0 -13
3 -27 8 -31 7 -8 9 -13 11 -44 2 -28 59 -85 80 -79 10 2 25 1 32 -4 11 -7 11
-9 1 -9 -10 0 -10 -3 0 -14 7 -8 16 -12 19 -10 4 2 9 -10 13 -27 3 -17 18 -41
33 -52 26 -21 35 -24 78 -32 11 -2 21 -4 23 -5 1 -2 7 -3 14 -4 6 0 12 -8 14
-16 9 -49 15 -62 36 -82 41 -41 100 -57 233 -64 44 -2 89 -8 100 -13 11 -5 63
-20 115 -32 84 -21 120 -23 316 -24 147 0 226 4 235 11 14 11 37 16 158 35 35
5 105 26 155 46 82 33 106 47 140 79 7 7 31 21 55 33 44 23 108 84 299 285 81
86 115 130 122 157 6 21 31 65 56 98 24 33 52 81 61 108 9 26 20 53 24 59 5 5
15 35 23 66 17 66 38 110 77 159 16 20 29 39 29 42 0 3 18 35 40 71 22 36 40
69 40 73 0 5 11 21 25 37 14 16 25 33 25 39 0 5 6 23 14 40 22 51 34 87 57
177 12 47 25 87 28 90 8 6 28 52 29 64 0 5 4 12 9 15 9 6 60 91 62 103 7 36
50 109 86 147 25 25 45 54 45 64 0 10 4 16 8 13 9 -5 32 101 32 146 0 23 28
116 49 163 5 11 14 35 21 53 7 17 16 32 21 32 4 0 13 19 19 43 15 60 105 239
135 269 14 14 29 45 34 69 21 99 66 243 90 285 5 11 20 48 32 84 31 92 91 202
136 248 7 7 13 21 13 31 0 10 3 21 7 25 5 4 8 11 9 14 0 4 15 36 32 72 18 36
32 71 32 77 0 57 110 333 140 353 7 5 35 95 30 95 -7 0 44 90 62 109 34 37 86
158 93 219 5 43 24 92 76 194 38 75 69 142 69 148 0 17 48 105 70 129 58 64
70 80 70 90 0 6 4 4 9 -4 6 -8 7 -18 5 -22 -3 -4 2 -5 10 -2 9 3 16 10 16 16
0 5 -4 6 -10 3 -5 -3 -10 -1 -10 4 0 6 4 11 8 11 5 0 7 17 5 38 -7 68 -7 77 1
117 11 56 36 136 50 160 7 11 23 52 35 90 29 87 81 192 112 226 13 14 29 36
35 50 23 48 42 94 49 119 3 14 10 34 14 45 17 41 61 183 61 196 0 15 48 110
59 119 14 11 67 108 93 170 15 36 43 82 62 103 20 21 36 43 36 48 0 6 4 8 9 5
5 -3 11 11 14 32 11 92 42 220 60 252 53 94 106 209 112 243 4 20 11 37 16 37
5 0 9 5 9 10 0 6 14 24 30 42 17 17 30 37 30 44 0 8 7 14 16 14 8 0 12 5 9 10
-3 6 -1 10 4 10 6 0 11 8 11 18 0 10 5 23 11 29 6 6 13 37 15 69 6 76 49 205
85 259 16 24 29 48 29 55 0 7 25 63 55 126 41 83 63 118 85 131 17 9 30 21 30
25 0 4 5 8 10 8 15 0 13 -107 -2 -112 -7 -3 -6 -7 5 -11 14 -5 17 0 17 32 0
22 6 42 13 44 9 4 9 8 1 14 -9 6 -8 11 1 20 11 10 15 10 18 0 3 -7 6 4 6 23 1
26 -2 31 -9 20 -5 -8 -10 -10 -10 -5 0 6 -5 3 -10 -5 -35 -54 15 235 54 308 7
15 18 47 24 72 6 25 47 109 91 188 44 78 77 142 73 142 -4 0 0 6 8 13 20 16
40 53 40 72 0 8 4 15 9 15 5 0 15 24 21 53 7 28 16 57 20 62 4 6 10 33 12 60
6 54 11 66 63 165 19 35 35 70 35 77 0 7 4 13 10 13 5 0 12 17 16 38 12 62 32
101 79 148 24 25 47 59 50 75 4 16 10 29 15 29 9 0 21 55 25 121 4 56 38 159
71 214 13 23 21 45 17 48 -3 4 -1 7 5 7 7 0 12 10 12 21 0 12 9 38 19 58 11
20 32 65 47 101 16 36 43 79 60 95 23 21 37 47 47 90 9 33 23 89 31 125 9 36
25 84 36 107 11 24 20 53 20 65 0 24 45 118 84 178 47 71 92 146 106 175 8 17
17 32 20 35 3 3 10 16 16 30 43 92 56 131 80 240 12 58 49 146 65 160 3 3 12
22 18 42 7 20 17 38 22 40 6 2 11 10 13 18 2 8 6 33 10 55 4 22 14 54 22 72 8
17 14 36 14 43 0 6 8 25 17 43 9 18 16 36 15 40 -1 5 1 6 6 3 5 -3 12 -35 15
-72 7 -77 13 -87 33 -60 8 11 14 16 15 10 1 -5 5 7 10 26 25 102 17 599 -10
608 -6 2 -11 8 -11 14 0 5 -7 16 -15 24 -13 14 -15 14 -15 0 0 -33 -26 -14
-47 35 -13 28 -23 55 -23 60 0 5 -4 9 -10 9 -5 0 -10 9 -10 19 0 11 -4 23 -10
26 -5 3 -10 15 -10 25 0 22 -38 112 -50 120 -5 3 -41 69 -79 147 -61 120 -81
151 -141 211 -38 39 -87 79 -107 89 -44 20 -49 24 -110 81 -26 24 -63 56 -82
70 -20 15 -42 33 -49 40 -14 12 -95 52 -108 52 -3 0 -24 14 -45 31 -21 17 -39
27 -39 22 0 -4 -4 -2 -9 5 -4 7 -26 20 -47 27 -31 11 -34 14 -15 15 13 0 21 3
17 7 -3 4 -64 7 -134 8 -70 1 -188 4 -262 8 -79 3 -182 1 -250 -6z"/>
<path d="M23010 15700 c-47 -5 -125 -9 -175 -10 -60 -1 -83 -4 -70 -10 16 -7
11 -9 -22 -9 -23 -1 -45 -6 -48 -11 -4 -6 -10 -8 -15 -5 -5 3 -11 1 -15 -5 -3
-5 1 -10 9 -10 13 0 12 -4 -4 -22 -55 -61 -69 -71 -118 -94 -64 -28 -81 -40
-225 -166 -17 -16 -35 -28 -38 -28 -16 0 -219 -199 -219 -214 0 -2 -20 -37
-45 -77 -25 -40 -45 -77 -45 -82 0 -4 -11 -32 -24 -60 -13 -29 -29 -70 -36
-92 -7 -22 -23 -63 -36 -91 -13 -28 -24 -54 -24 -58 0 -4 -9 -26 -19 -49 -11
-24 -23 -56 -27 -72 -4 -17 -11 -35 -16 -42 -5 -7 -10 -83 -10 -170 -1 -160 6
-199 53 -308 4 -11 14 -40 20 -65 7 -25 16 -50 20 -55 5 -6 10 -26 13 -45 12
-97 19 -129 27 -125 4 3 13 -11 20 -30 7 -19 17 -35 21 -35 4 0 8 -6 8 -14 0
-7 8 -24 18 -37 23 -29 34 -72 26 -94 -5 -13 -8 -14 -15 -3 -7 10 -9 9 -9 -4
0 -9 6 -19 13 -21 7 -4 8 -6 1 -6 -18 -1 17 -71 36 -72 8 0 10 -3 4 -5 -7 -3
7 -24 31 -48 44 -46 83 -72 92 -62 11 11 -17 58 -37 63 -12 3 -16 11 -13 20 3
8 0 19 -8 24 -10 6 -10 9 -2 9 7 0 38 -26 69 -57 31 -32 53 -52 50 -46 -4 8 5
6 23 -4 16 -10 27 -21 25 -25 -3 -5 1 -8 9 -8 8 0 21 -15 28 -32 19 -49 19
-67 0 -61 -33 10 -66 29 -78 43 -11 13 -12 12 -10 -5 1 -12 26 -44 55 -73 29
-28 52 -55 52 -58 0 -11 62 -85 67 -80 7 6 113 -103 113 -116 0 -11 69 -78 81
-78 10 0 59 -48 59 -58 1 -10 54 -79 60 -78 15 3 88 -67 105 -98 11 -20 23
-36 27 -36 5 0 8 -6 8 -14 0 -8 10 -18 22 -22 22 -7 108 -90 108 -105 0 -10
48 -59 58 -59 13 0 89 -74 101 -98 16 -30 52 -72 63 -72 16 0 51 -36 89 -92
21 -31 49 -60 61 -64 12 -3 27 -12 33 -18 7 -6 24 -20 38 -31 15 -11 27 -27
27 -36 0 -22 40 -63 81 -83 21 -10 47 -37 68 -72 23 -36 53 -67 88 -91 30 -20
66 -53 79 -74 13 -21 48 -57 76 -80 29 -23 61 -56 70 -73 21 -41 73 -91 108
-106 17 -7 42 -33 60 -63 17 -29 53 -68 79 -87 26 -18 53 -46 60 -61 20 -45
150 -169 179 -169 6 0 12 -4 12 -9 0 -5 8 -12 18 -15 9 -3 23 -20 31 -38 8
-18 17 -35 20 -38 3 -3 16 -23 28 -45 13 -25 36 -48 60 -60 22 -11 54 -33 72
-48 18 -15 36 -27 39 -27 4 0 13 -12 19 -27 14 -32 51 -72 116 -127 25 -21 57
-57 72 -80 14 -23 43 -52 63 -66 59 -40 72 -53 88 -86 10 -20 36 -43 74 -65
34 -20 64 -45 70 -60 15 -35 88 -109 107 -109 11 0 83 -68 83 -77 0 -12 50
-63 61 -63 17 0 41 -22 128 -122 18 -21 40 -38 47 -38 8 0 14 -4 14 -10 0 -5
6 -10 13 -10 18 0 52 -41 60 -71 10 -34 17 -42 67 -71 44 -26 71 -56 99 -110
8 -15 27 -33 43 -40 15 -7 28 -16 28 -19 0 -4 13 -12 30 -19 16 -7 28 -16 25
-20 -3 -5 1 -14 8 -22 7 -7 20 -29 30 -48 9 -19 17 -30 17 -25 0 6 4 5 8 -2 4
-6 14 -13 22 -15 8 -2 20 -10 27 -18 6 -8 17 -15 24 -15 8 0 18 -13 24 -29 5
-15 27 -46 49 -67 31 -32 45 -39 77 -39 28 0 37 -4 33 -13 -3 -8 16 -35 41
-60 25 -25 45 -53 45 -62 0 -9 4 -14 9 -10 27 16 23 -164 -4 -191 -8 -8 -22
-28 -32 -44 -9 -17 -21 -30 -25 -30 -4 0 -18 -10 -32 -22 -48 -44 -68 -59 -94
-71 -15 -6 -29 -14 -32 -17 -11 -11 -99 -70 -105 -70 -10 0 -35 -22 -107 -95
-38 -38 -99 -99 -136 -135 -37 -36 -107 -107 -157 -158 -49 -51 -123 -126
-164 -165 -40 -40 -112 -112 -160 -160 -47 -49 -151 -155 -231 -236 -302 -306
-446 -457 -473 -493 -15 -20 -51 -51 -81 -69 -29 -18 -62 -46 -71 -62 -26 -44
-85 -107 -100 -107 -8 0 -31 -21 -51 -47 -37 -46 -253 -270 -418 -431 -43 -42
-231 -228 -416 -412 -186 -184 -354 -351 -374 -370 -110 -109 -671 -679 -687
-699 -11 -14 -48 -54 -82 -91 -34 -36 -73 -79 -87 -95 -14 -17 -43 -45 -66
-63 -23 -18 -47 -45 -55 -60 -18 -36 -42 -68 -90 -119 -46 -50 -119 -194 -119
-237 0 -42 -19 -106 -30 -106 -6 0 -10 -4 -10 -10 0 -5 -13 -38 -28 -72 -30
-66 -35 -82 -78 -268 -27 -117 -29 -234 -5 -263 5 -7 12 -30 16 -52 4 -22 14
-51 21 -65 7 -14 18 -56 24 -94 6 -37 17 -78 24 -90 8 -11 26 -50 42 -86 16
-36 33 -68 38 -72 6 -4 11 -40 11 -80 1 -79 12 -138 26 -138 5 0 9 -10 9 -23
0 -21 31 -66 48 -68 4 0 29 -2 56 -4 27 -3 52 -8 55 -13 3 -5 24 -18 46 -30
45 -23 95 -68 95 -87 0 -7 7 -18 15 -25 8 -7 13 -16 10 -20 -3 -4 1 -13 8 -19
8 -6 12 -23 9 -40 -5 -36 15 -57 89 -94 56 -27 92 -32 139 -18 24 7 101 -8
145 -29 28 -14 147 -40 156 -35 4 3 53 -2 110 -11 107 -16 386 -14 398 4 3 4
51 13 105 20 55 7 104 16 110 21 6 4 39 14 74 21 34 7 65 16 68 21 7 12 89 22
114 14 18 -6 20 -9 9 -16 -10 -6 -11 -11 -2 -20 13 -13 83 5 83 22 0 5 5 9 11
9 23 0 89 56 89 75 0 13 -3 16 -8 8 -4 -6 -14 -11 -22 -11 -42 3 -60 -3 -61
-19 0 -15 -2 -15 -8 2 -10 24 -3 45 12 42 7 -1 11 4 9 11 -1 7 6 15 15 19 24
9 83 73 109 118 6 11 37 32 68 48 38 19 84 55 134 108 46 48 84 79 97 79 14 0
29 16 49 53 35 63 62 94 99 114 30 15 80 56 106 86 9 10 26 31 39 45 12 15 33
43 45 62 28 45 54 71 91 90 56 28 171 140 216 208 41 64 73 98 109 116 36 19
181 158 181 174 0 6 8 17 19 24 10 7 22 24 26 38 10 34 34 59 70 75 16 7 48
29 70 49 22 20 43 36 48 36 4 0 7 6 7 14 0 8 8 17 18 20 17 6 77 80 125 156
12 19 38 43 57 52 18 10 66 47 105 84 39 36 76 69 81 72 10 7 27 35 56 91 21
41 47 71 62 71 7 0 23 9 36 19 14 11 42 34 64 50 21 17 36 31 32 31 -4 0 13
17 38 38 24 20 56 60 70 87 35 68 54 88 106 115 44 22 118 80 103 80 -4 0 4 8
17 17 14 10 30 16 35 15 6 -2 7 -1 3 3 -3 4 7 21 23 37 16 17 29 37 29 44 0 8
4 14 9 14 5 0 13 10 16 23 10 31 55 77 77 77 10 0 18 4 18 8 0 5 11 14 25 20
14 7 42 30 62 51 20 22 40 38 45 35 4 -3 8 1 8 9 0 7 11 23 25 35 13 11 34 43
46 69 24 54 45 75 106 103 52 25 175 149 214 217 31 54 71 93 95 93 8 0 14 5
14 10 0 6 6 10 13 10 7 0 35 23 61 50 26 28 53 50 59 50 6 0 8 3 4 6 -3 3 6
17 21 29 15 13 37 43 50 66 30 61 50 82 102 114 25 16 67 50 93 76 26 27 52
49 57 49 5 0 12 9 15 20 3 11 10 20 14 20 4 0 20 24 35 54 31 60 45 76 96 101
19 10 60 43 91 74 31 31 67 65 80 76 14 11 38 46 54 78 16 32 42 67 57 78 15
11 28 18 28 14 0 -30 206 174 227 225 18 44 71 100 94 100 9 0 54 36 99 80 45
44 86 80 91 80 5 0 18 19 28 43 25 57 66 105 107 122 39 16 50 25 106 82 22
23 44 40 48 38 10 -6 51 47 78 102 26 49 79 93 113 93 14 0 30 5 37 12 9 9 12
9 12 -3 0 -12 2 -12 10 1 5 8 10 12 10 7 0 -15 -26 -51 -62 -85 -21 -19 -38
-39 -38 -44 0 -5 -7 -17 -16 -25 -12 -12 -13 -18 -3 -23 8 -6 6 -9 -7 -13 -13
-3 -11 -5 9 -6 15 0 27 2 27 7 0 4 14 13 30 20 17 8 28 18 25 22 -3 5 4 14 15
20 11 6 19 14 18 18 0 4 4 18 10 32 6 14 11 19 11 12 1 -10 5 -10 17 2 8 9 19
16 24 16 13 0 85 71 99 98 19 36 53 72 62 66 5 -3 43 29 85 71 42 41 85 80 96
86 11 6 35 27 52 47 17 20 50 55 74 77 24 22 60 58 80 79 20 22 55 56 77 75
77 70 394 390 410 414 9 14 19 56 22 94 5 61 2 76 -20 123 -14 30 -24 57 -21
62 3 4 -11 8 -31 8 -33 0 -35 -2 -29 -25 3 -14 2 -25 -4 -25 -12 0 -24 29 -16
41 3 5 -5 9 -16 9 -16 0 -20 4 -16 16 3 9 6 23 7 32 0 11 2 12 6 5 2 -7 13
-13 24 -13 10 0 19 -7 19 -15 0 -8 7 -15 15 -15 8 0 15 6 15 13 -1 17 -30 54
-30 38 0 -11 -3 -11 -15 -1 -10 8 -12 16 -6 19 6 4 -3 19 -20 36 -17 15 -38
39 -46 52 -8 12 -24 23 -35 23 -10 0 -16 5 -13 10 6 9 -6 13 -22 8 -4 -2 -7
-15 -7 -30 1 -18 -4 -28 -13 -28 -8 0 -12 4 -9 8 3 5 -10 14 -29 21 -24 8 -38
22 -46 46 -7 19 -16 32 -19 30 -4 -3 -12 7 -18 20 -7 14 -17 25 -24 25 -7 0
-31 20 -53 45 -72 82 -97 105 -117 105 -18 0 -104 84 -123 120 -9 17 -20 30
-25 30 -5 0 -40 30 -79 66 -39 37 -87 79 -108 95 -21 15 -83 76 -138 135 -55
59 -115 121 -134 138 -39 35 -376 364 -436 425 -22 23 -85 85 -140 138 -151
149 -263 260 -342 343 -40 41 -101 104 -137 140 -36 36 -66 68 -66 72 0 4 -44
49 -97 100 -53 51 -124 121 -157 156 -68 70 -232 236 -294 297 -38 37 -301
300 -342 341 -10 11 -72 73 -137 139 -65 67 -131 132 -148 145 -16 14 -48 47
-70 74 -47 58 -213 226 -223 226 -11 0 -86 73 -118 116 -16 21 -39 48 -51 59
-120 109 -202 188 -236 225 -23 25 -110 115 -194 200 -84 85 -204 207 -267
271 -62 64 -120 121 -128 125 -8 5 -36 38 -63 74 -27 36 -75 90 -107 120 -32
30 -58 60 -58 65 0 6 -16 19 -36 30 -43 23 -90 70 -111 110 -9 17 -48 60 -87
98 -39 37 -70 71 -69 76 1 4 -9 14 -22 21 -14 7 -25 17 -25 22 0 4 -7 8 -15 8
-18 0 -105 84 -105 102 0 16 -157 169 -234 228 -34 25 -68 62 -80 85 -21 41
-111 135 -129 135 -5 0 -37 28 -70 63 -33 34 -77 74 -99 88 -21 14 -65 57 -97
95 -84 100 -145 159 -179 173 -16 7 -43 25 -61 41 -44 41 -166 121 -225 149
-62 29 -121 88 -105 107 9 11 5 16 -17 26 -16 7 -32 16 -35 21 -3 5 -10 8 -15
7 -5 -1 -33 4 -62 11 -36 8 -66 9 -95 3 -23 -5 -69 -6 -102 -3 -86 8 -305 8
-405 -1z m-425 -2780 c3 -6 -1 -7 -9 -4 -18 7 -21 14 -7 14 6 0 13 -4 16 -10z
m7350 -4469 c3 -6 -3 -14 -12 -20 -10 -5 -15 -12 -11 -16 7 -7 -38 -55 -52
-55 -5 0 -4 13 1 30 6 17 15 30 19 30 5 0 12 9 15 20 7 21 30 27 40 11z m-317
-347 c-49 -58 -108 -108 -116 -99 -4 4 2 13 12 21 11 8 15 14 9 14 -6 0 -2 19
11 45 18 38 27 46 61 53 48 10 54 2 23 -34z m-138 -129 c0 -8 -7 -15 -15 -15
-13 0 -14 3 -3 15 16 18 18 18 18 0z m-40 -40 c0 -8 -7 -15 -15 -15 -16 0 -20
12 -8 23 11 12 23 8 23 -8z m-40 -35 c0 -13 -6 -20 -17 -19 -11 0 -13 3 -5 6
6 2 12 11 12 19 0 8 2 14 5 14 3 0 5 -9 5 -20z"/>
<path d="M8480 15617 c0 -8 14 -13 35 -14 30 -1 34 1 24 13 -14 18 -59 18 -59
1z"/>
<path d="M22185 13270 c3 -5 8 -10 11 -10 2 0 4 5 4 10 0 6 -5 10 -11 10 -5 0
-7 -4 -4 -10z"/>
<path d="M18282 11695 c0 -16 2 -22 5 -12 2 9 2 23 0 30 -3 6 -5 -1 -5 -18z"/>
<path d="M17960 10925 c0 -8 4 -15 10 -15 5 0 7 7 4 15 -4 8 -8 15 -10 15 -2
0 -4 -7 -4 -15z"/>
<path d="M17313 9518 c-6 -18 -14 -49 -17 -69 -5 -30 -3 -37 13 -42 15 -3 21
3 30 33 6 20 11 45 11 54 0 10 5 14 10 11 6 -3 10 4 10 17 0 18 -2 20 -10 8
-7 -11 -10 -11 -10 -2 0 7 -4 11 -9 8 -5 -4 -11 -1 -13 5 -2 6 -9 -5 -15 -23z"/>
<path d="M5160 9464 c0 -14 3 -14 15 -4 8 7 15 14 15 16 0 2 -7 4 -15 4 -8 0
-15 -7 -15 -16z"/>
<path d="M17290 9388 c0 -7 -3 -24 -6 -38 -6 -20 -4 -23 6 -13 16 15 23 63 9
63 -5 0 -9 -6 -9 -12z"/>
<path d="M711 9054 c0 -11 3 -14 6 -6 3 7 2 16 -1 19 -3 4 -6 -2 -5 -13z"/>
<path d="M711 9014 c0 -11 3 -14 6 -6 3 7 2 16 -1 19 -3 4 -6 -2 -5 -13z"/>
<path d="M17000 8752 c0 -5 -9 -19 -20 -32 -20 -23 -25 -90 -7 -90 27 0 58 63
50 103 -5 24 -23 39 -23 19z"/>
<path d="M16681 8003 c1 -35 1 -36 9 -11 4 14 11 31 15 37 3 6 -1 11 -9 11
-12 0 -16 -10 -15 -37z"/>
<path d="M29200 7641 c0 -6 -7 -11 -15 -11 -9 0 -18 -7 -21 -15 -4 -8 -13 -15
-20 -15 -8 0 -18 -8 -21 -17 -4 -10 -13 -23 -21 -29 -22 -16 1 -27 39 -19 18
4 35 16 41 31 6 13 16 24 22 24 6 0 4 5 -4 10 -8 5 -10 10 -4 10 16 0 26 28
14 35 -6 4 -10 1 -10 -4z"/>
<path d="M29003 7439 c-21 -8 -43 -37 -43 -58 0 -18 47 9 61 35 15 29 11 34
-18 23z"/>
<path d="M16401 7388 c-1 -21 4 -38 10 -38 5 0 8 4 4 9 -3 5 -1 12 5 16 5 3
10 13 10 21 0 8 -4 13 -9 10 -5 -4 -12 0 -14 6 -3 7 -6 -4 -6 -24z"/>
<path d="M16362 7308 c-1 -17 -9 -49 -17 -70 -5 -11 -2 -16 9 -14 22 3 24 7
30 54 3 30 1 42 -8 42 -7 0 -13 -6 -14 -12z"/>
<path d="M28821 7264 c-25 -32 -27 -48 -5 -40 9 3 20 6 25 6 5 0 9 7 9 15 0 8
5 15 10 15 6 0 10 7 10 15 0 24 -27 18 -49 -11z"/>
<path d="M28676 7105 c-3 -8 -1 -15 4 -15 6 0 10 7 10 15 0 8 -2 15 -4 15 -2
0 -6 -7 -10 -15z"/>
<path d="M28520 6957 c0 -7 -9 -19 -20 -27 -30 -21 -27 -43 4 -29 31 15 51 55
30 63 -8 3 -14 0 -14 -7z"/>
<path d="M28360 6780 c0 -11 -3 -19 -7 -19 -19 3 -33 -2 -33 -11 0 -12 20 -13
36 -2 16 10 28 52 15 52 -6 0 -11 -9 -11 -20z"/>
<path d="M28188 6643 c-9 -3 -20 -14 -24 -26 -15 -45 -14 -49 14 -42 15 4 27
7 27 8 1 1 6 14 12 29 13 29 4 38 -29 31z"/>
<path d="M28040 6479 c0 -5 -9 -19 -20 -31 -11 -12 -20 -26 -20 -30 0 -12 42
11 57 31 16 21 16 28 -2 35 -8 3 -15 1 -15 -5z"/>
<path d="M27868 6305 c-27 -23 -38 -55 -19 -55 18 0 61 42 61 61 0 25 -9 24
-42 -6z"/>
<path d="M27707 6132 c-15 -15 -27 -31 -27 -35 0 -14 31 -6 50 13 20 20 27 50
12 50 -5 0 -20 -13 -35 -28z"/>
<path d="M27586 6008 c-48 -27 -101 -98 -73 -98 12 0 57 39 85 74 18 23 11 37
-12 24z"/>
<path d="M27399 5827 c-11 -12 -29 -34 -40 -49 -35 -48 30 -17 71 34 17 22 17
27 5 32 -8 3 -24 -5 -36 -17z"/>
<path d="M27275 5695 c-59 -43 -75 -59 -75 -75 0 -10 -6 -21 -12 -23 -8 -4 -7
-6 3 -6 21 -1 94 69 101 97 4 12 5 22 5 22 -1 0 -11 -7 -22 -15z"/>
<path d="M27071 5501 c-31 -29 -40 -51 -20 -51 19 0 50 21 44 31 -4 5 -2 9 3
9 13 0 23 28 13 35 -5 3 -23 -8 -40 -24z"/>
<path d="M26948 5380 c-20 -11 -40 -24 -43 -30 -4 -6 -11 -8 -16 -4 -5 3 -9 2
-7 -3 5 -19 -46 -100 -71 -111 -14 -7 -35 -20 -47 -30 -30 -26 -84 -103 -84
-121 0 -11 4 -10 16 7 8 12 22 22 30 22 8 0 14 5 14 10 0 6 5 10 11 10 14 0
39 25 39 39 0 6 5 11 10 11 6 0 10 6 10 13 0 15 44 57 85 81 17 10 39 32 50
49 25 43 44 77 42 77 -1 -1 -19 -10 -39 -20z"/>
<path d="M26638 5073 c-1 -5 -16 -15 -33 -24 -18 -10 -43 -41 -62 -75 -18 -33
-33 -55 -33 -51 0 5 -23 -10 -50 -33 -55 -46 -91 -100 -67 -100 14 0 97 74 97
87 0 12 61 67 93 83 49 25 107 120 74 120 -9 0 -17 -3 -19 -7z"/>
<path d="M26322 4743 c-11 -10 -32 -26 -46 -37 -25 -18 -72 -86 -59 -86 19 0
78 48 104 87 34 48 34 63 1 36z"/>
<path d="M8996 4615 c-3 -8 -1 -15 4 -15 6 0 10 7 10 15 0 8 -2 15 -4 15 -2 0
-6 -7 -10 -15z"/>
<path d="M26120 4544 c-22 -20 -40 -42 -40 -49 0 -7 -6 -16 -12 -18 -8 -4 -7
-6 3 -6 20 -1 99 75 99 95 0 20 -6 18 -50 -22z"/>
<path d="M25995 4419 c-5 -5 -25 -22 -43 -39 -19 -16 -35 -35 -36 -42 -1 -7
-5 -18 -9 -25 -5 -7 -1 -9 13 -6 11 3 20 9 20 14 0 5 6 9 13 9 13 0 58 52 69
81 8 20 -9 25 -27 8z"/>
<path d="M15114 4407 c-8 -9 -7 -16 3 -25 11 -11 13 -8 13 13 0 28 -1 29 -16
12z"/>
<path d="M15100 4371 c0 -7 -4 -10 -8 -7 -4 2 -9 -9 -10 -25 -1 -16 2 -29 8
-29 5 0 9 3 8 8 -1 4 2 17 6 30 4 13 5 26 2 29 -3 4 -6 1 -6 -6z"/>
<path d="M15081 4264 c0 -11 3 -14 6 -6 3 7 2 16 -1 19 -3 4 -6 -2 -5 -13z"/>
<path d="M25825 4240 c-24 -9 -59 -47 -69 -73 -7 -20 -5 -20 39 7 26 16 61 64
52 72 -1 1 -11 -2 -22 -6z"/>
<path d="M25665 4088 c-35 -21 -55 -44 -65 -76 -10 -38 -9 -39 27 -7 53 47 63
59 63 77 0 21 1 21 -25 6z"/>
<path d="M25505 3918 c-44 -24 -84 -88 -54 -88 5 0 7 5 4 10 -3 6 -1 10 5 10
5 0 24 13 41 30 34 32 37 56 4 38z"/>
<path d="M25350 3762 c-42 -13 -93 -92 -60 -92 6 0 10 4 10 9 0 5 9 11 20 14
11 3 23 13 27 24 3 10 11 21 16 24 14 10 4 27 -13 21z"/>
<path d="M25165 3584 c-26 -27 -48 -64 -41 -71 3 -3 6 -2 6 4 0 6 12 16 28 22
30 13 60 61 37 61 -8 0 -21 -7 -30 -16z"/>
<path d="M25002 3415 c-25 -29 -27 -35 -9 -35 7 0 23 14 35 30 28 38 6 42 -26
5z"/>
<path d="M24680 3088 c0 -9 -6 -19 -12 -21 -8 -3 -7 -6 4 -6 22 -1 29 11 17
29 -7 13 -9 12 -9 -2z"/>
<path d="M14424 2957 c-29 -29 -46 -81 -32 -95 13 -13 48 2 63 27 16 26 33 81
24 75 -5 -3 -9 0 -9 5 0 18 -23 11 -46 -12z"/>
<path d="M9120 2910 c0 -13 5 -18 15 -14 8 4 15 12 15 20 0 8 -7 14 -15 14 -8
0 -15 -9 -15 -20z"/>
<path d="M24440 2850 c0 -5 -6 -10 -12 -10 -7 0 -21 -13 -30 -30 -22 -38 -4
-51 26 -19 24 26 40 69 25 69 -5 0 -9 -4 -9 -10z"/>
<path d="M9023 2794 c-23 -25 -31 -64 -14 -64 5 0 14 7 21 15 7 8 9 15 6 15
-4 0 0 7 8 16 17 16 22 44 9 44 -5 0 -18 -12 -30 -26z"/>
<path d="M6905 2630 c3 -5 8 -10 11 -10 2 0 4 5 4 10 0 6 -5 10 -11 10 -5 0
-7 -4 -4 -10z"/>
</g>
</svg>
